# xmcd
#
# Track frame offsets:
#	150
#	13185
#	33122
#	52890
#	79220
#	105830
#	134170
#	165005
#	183535
#	218025
#	242492
#	262627
#
# Disc length: 3796 seconds
#
# Revision: 8
# Processed by: cddbd v1.5.2PL0 Copyright (c) Steve Scherf et al.
# Submitted via: EasyCDDAExtractor 15.3.0.1
#
DISCID=8a0ed20c
DTITLE=George Michael - Patience
DYEAR=2004
DGENRE=Pop
TTITLE0=Patience
TTITLE1=Amazing
TTITLE2=John And Elvis Are Dead
TTITLE3=Cars And Trains
TTITLE4=Round Here
TTITLE5=My Mother Had A Brother
TTITLE6=Flawless (Go To The City)
TTITLE7=American Angel
TTITLE8=Precious Box
TTITLE9=Please Send Me Someone (Anselmo's Song)
TTITLE10=Freeek! '04
TTITLE11=Through
EXTD=YEAR: 2004
EXTT0=
EXTT1=
EXTT2=
EXTT3=
EXTT4=
EXTT5=
EXTT6=
EXTT7=
EXTT8=
EXTT9=
EXTT10=
EXTT11=
PLAYORDER=
